<?xml version="1.0" encoding="utf-8"?>
<!-- Generator: Adobe Illustrator 24.0.1, SVG Export Plug-In . SVG Version: 6.00 Build 0)  -->
<svg version="1.0" id="Layer_1" xmlns="http://www.w3.org/2000/svg" xmlns:xlink="http://www.w3.org/1999/xlink" x="0px" y="0px"
	 viewBox="0 0 745.2 768" style="enable-background:new 0 0 745.2 768;" xml:space="preserve">
<style type="text/css">
	.st0{fill:#4b6cb7;}
	.st1{fill:#FFFFFF;}
</style>
<rect x="0" y="0" class="st0" width="745.2" height="768"/>
<g>
	<g>
		<polygon class="st1" points="313.4,467.2 315.4,453.1 320.8,416.9 320.8,416.9 353.8,196.8 377.3,353.9 444.2,246.7 420.8,100.2 
			295.3,100.2 208.1,645.5 277.3,645.5 288.3,645.5 534.3,251.1 472.4,212.4 		"/>
		
			<rect x="489.5" y="159.1" transform="matrix(0.5294 -0.8484 0.8484 0.5294 81.5962 538.33)" class="st1" width="73.1" height="73.1"/>
		<polygon class="st1" points="396.8,482.5 406.6,546.6 406.7,546.6 409.9,567.4 409.9,567.4 421.5,645.5 508,645.5 464.5,373.9 		
			"/>
	</g>
</g>
</svg>
