<?xml version="1.0" standalone="no"?>
<!DOCTYPE svg PUBLIC "-//W3C//DTD SVG 20010904//EN"
 "http://www.w3.org/TR/2001/REC-SVG-20010904/DTD/svg10.dtd">
<svg version="1.0" xmlns="http://www.w3.org/2000/svg"
 width="700.000000pt" height="700.000000pt" viewBox="0 0 700.000000 700.000000"
 preserveAspectRatio="xMidYMid meet">
<metadata>
Created by potrace 1.11, written by Peter Selinger 2001-2013
</metadata>
<g transform="translate(0.000000,700.000000) scale(0.100000,-0.100000)"
fill="#000000" stroke="none">
<path d="M0 3500 l0 -3500 3500 0 3500 0 0 3500 0 3500 -3500 0 -3500 0 0
-3500z m3910 2210 c0 -6 41 -264 90 -575 l91 -564 -263 -420 c-144 -231 -263
-419 -264 -418 -1 1 -41 263 -88 582 -48 319 -89 591 -93 605 -3 15 -66 -373
-149 -925 -181 -1202 -174 -1149 -159 -1133 7 7 288 455 625 995 393 632 616
980 624 976 39 -23 462 -287 468 -292 4 -3 -428 -703 -960 -1556 l-968 -1550
-314 0 c-309 0 -315 0 -312 20 5 43 672 4221 677 4243 l5 22 495 0 c332 0 495
-3 495 -10z m986 -496 c120 -75 223 -140 227 -144 7 -7 -255 -442 -288 -478
-9 -11 -59 16 -254 139 -233 146 -241 152 -228 173 7 11 76 121 152 243 117
188 141 221 155 213 9 -5 115 -71 236 -146z m-471 -2738 c91 -566 165 -1033
165 -1038 0 -4 -153 -8 -340 -8 -187 0 -340 2 -340 5 0 6 -92 619 -151 1006
l-42 276 264 423 c246 395 264 422 272 394 4 -16 82 -492 172 -1058z"/>
</g>
</svg>
