<?xml version="1.0" standalone="no"?>
<!DOCTYPE svg PUBLIC "-//W3C//DTD SVG 20010904//EN"
 "http://www.w3.org/TR/2001/REC-SVG-20010904/DTD/svg10.dtd">
<svg version="1.0" xmlns="http://www.w3.org/2000/svg"
 width="3200.000000pt" height="3200.000000pt" viewBox="0 0 3200.000000 3200.000000"
 preserveAspectRatio="xMidYMid meet">
<metadata>
Created by potrace 1.11, written by Peter Selinger 2001-2013
</metadata>
<g transform="translate(0.000000,3200.000000) scale(0.100000,-0.100000)"
fill="#000000" stroke="none">
<path d="M480 16000 l0 -16000 15525 0 15525 0 0 16000 0 16000 -15525 0
-15525 0 0 -16000z m17535 11818 c2 -7 223 -1382 490 -3055 l486 -3043 -1393
-2231 c-1060 -1698 -1394 -2227 -1400 -2212 -4 10 -224 1473 -490 3251 -270
1811 -486 3225 -490 3215 -6 -15 -472 -3117 -1424 -9483 -165 -1100 -253
-1703 -250 -1707 2 -2 1486 2374 3299 5280 1813 2905 3302 5290 3309 5300 13
17 105 -39 1288 -778 701 -439 1281 -803 1288 -810 11 -10 -878 -1443 -5068
-8161 -2796 -4482 -5102 -8179 -5126 -8216 l-44 -68 -1670 0 c-918 0 -1670 2
-1670 5 0 20 3631 22709 3636 22716 3 5 1059 9 2615 9 2079 0 2611 -3 2614
-12z m5205 -2683 c701 -438 1274 -801 1272 -807 -2 -6 -363 -589 -804 -1294
-499 -801 -805 -1281 -812 -1277 -6 3 -588 366 -1293 806 -814 507 -1280 803
-1276 811 3 6 366 588 806 1293 668 1072 802 1281 816 1274 9 -5 590 -368
1291 -806z m-2480 -14355 c495 -3094 903 -5637 906 -5653 l6 -27 -1805 0
-1805 0 -6 33 c-3 17 -114 763 -246 1657 -133 894 -270 1810 -306 2035 -135
866 -464 3012 -467 3045 -2 31 163 299 1392 2270 1582 2536 1424 2285 1428
2274 1 -5 408 -2540 903 -5634z"/>
</g>
</svg>
